<?xml version="1.0" encoding="UTF-8" standalone="no"?><svg xmlns="http://www.w3.org/2000/svg" xmlns:xlink="http://www.w3.org/1999/xlink" contentScriptType="application/ecmascript" contentStyleType="text/css" height="557px" preserveAspectRatio="none" style="width:1050px;height:557px;" version="1.1" viewBox="0 0 1050 557" width="1050px" zoomAndPan="magnify"><defs><filter height="300%" id="f1ti5y0bqqhhlr" width="300%" x="-1" y="-1"><feGaussianBlur result="blurOut" stdDeviation="2.0"/><feColorMatrix in="blurOut" result="blurOut2" type="matrix" values="0 0 0 0 0 0 0 0 0 0 0 0 0 0 0 0 0 0 .4 0"/><feOffset dx="4.0" dy="4.0" in="blurOut2" result="blurOut3"/><feBlend in="SourceGraphic" in2="blurOut3" mode="normal"/></filter></defs><g><ellipse cx="393" cy="18" fill="#000000" filter="url(#f1ti5y0bqqhhlr)" rx="10" ry="10" style="stroke: none; stroke-width: 1.0;"/><rect fill="#FEFECE" filter="url(#f1ti5y0bqqhhlr)" height="34.1328" rx="12.5" ry="12.5" style="stroke: #A80036; stroke-width: 1.5;" width="227" x="279.5" y="69"/><text fill="#000000" font-family="sans-serif" font-size="12" lengthAdjust="spacingAndGlyphs" textLength="207" x="289.5" y="90.6016">Agent: Hi I am your personal trainer</text><polygon fill="#FEFECE" filter="url(#f1ti5y0bqqhhlr)" points="393,144,405,156,393,168,381,156,393,144" style="stroke: #A80036; stroke-width: 1.5;"/><rect fill="#FEFECE" filter="url(#f1ti5y0bqqhhlr)" height="34.1328" rx="12.5" ry="12.5" style="stroke: #A80036; stroke-width: 1.5;" width="160" x="313" y="209"/><text fill="#000000" font-family="sans-serif" font-size="12" lengthAdjust="spacingAndGlyphs" textLength="140" x="323" y="230.6016">Fullfilment: manage_bmi</text><polygon fill="#FEFECE" filter="url(#f1ti5y0bqqhhlr)" points="393,289,405,301,393,313,381,301,393,289" style="stroke: #A80036; stroke-width: 1.5;"/><rect fill="#FEFECE" filter="url(#f1ti5y0bqqhhlr)" height="34.1328" rx="12.5" ry="12.5" style="stroke: #A80036; stroke-width: 1.5;" width="591" x="448.5" y="284"/><text fill="#000000" font-family="sans-serif" font-size="12" lengthAdjust="spacingAndGlyphs" textLength="571" x="458.5" y="305.6016">responed: Your last BMI on 30.12.2018 was 25, please give me your weight and hight to update it</text><rect fill="#FEFECE" filter="url(#f1ti5y0bqqhhlr)" height="34.1328" rx="12.5" ry="12.5" style="stroke: #A80036; stroke-width: 1.5;" width="353" x="216.5" y="372"/><text fill="#000000" font-family="sans-serif" font-size="12" lengthAdjust="spacingAndGlyphs" textLength="333" x="226.5" y="393.6016">responed: Plase give me your height, weight and birthday</text><polygon fill="#FEFECE" filter="url(#f1ti5y0bqqhhlr)" points="393,447,405,459,393,471,381,459,393,447" style="stroke: #A80036; stroke-width: 1.5;"/><rect fill="#FEFECE" filter="url(#f1ti5y0bqqhhlr)" height="34.1328" rx="12.5" ry="12.5" style="stroke: #A80036; stroke-width: 1.5;" width="155" x="315.5" y="512"/><text fill="#000000" font-family="sans-serif" font-size="12" lengthAdjust="spacingAndGlyphs" textLength="135" x="325.5" y="533.6016">Fullfilment: update_bmi</text><!--link start to Agent: Hi I am your personal trainer--><path d="M393,28.0336 C393,37.4082 393,51.7285 393,63.7898 " fill="none" id="start-Agent: Hi I am your personal trainer" style="stroke: #A80036; stroke-width: 1.0;"/><polygon fill="#A80036" points="393,68.7995,397,59.7995,393,63.7995,389,59.7995,393,68.7995" style="stroke: #A80036; stroke-width: 1.0;"/><!--link Agent: Hi I am your personal trainer to #5--><path d="M393,103.3034 C393,114.1588 393,128.0963 393,138.9108 " fill="none" id="Agent: Hi I am your personal trainer-#5" style="stroke: #A80036; stroke-width: 1.0;"/><polygon fill="#A80036" points="393,143.9417,397,134.9417,393,138.9417,389,134.9417,393,143.9417" style="stroke: #A80036; stroke-width: 1.0;"/><text fill="#000000" font-family="sans-serif" font-size="11" lengthAdjust="spacingAndGlyphs" textLength="116" x="257.0625" y="136.5331">User: What is my bmi?</text><!--link #5 to Fullfilment: manage_bmi--><path d="M393,168.1931 C393,177.976 393,191.9695 393,203.7381 " fill="none" id="#5-Fullfilment: manage_bmi" style="stroke: #A80036; stroke-width: 1.0;"/><polygon fill="#A80036" points="393,208.9656,397,199.9656,393,203.9656,389,199.9656,393,208.9656" style="stroke: #A80036; stroke-width: 1.0;"/><!--link Fullfilment: manage_bmi to #10--><path d="M393,243.0187 C393,255.1619 393,271.4383 393,283.6547 " fill="none" id="Fullfilment: manage_bmi-#10" style="stroke: #A80036; stroke-width: 1.0;"/><polygon fill="#A80036" points="393,288.9526,397,279.9526,393,283.9526,389,279.9526,393,288.9526" style="stroke: #A80036; stroke-width: 1.0;"/><text fill="#000000" font-family="sans-serif" font-size="11" lengthAdjust="spacingAndGlyphs" textLength="70" x="305.0625" y="278.5828">profile exists</text><!--link #10 to responed: Your last BMI on 30.12.2018 was 25, please give me your weight and hight to update it--><path d="M405.0822,301 C413.8765,301 427.0454,301 443.1639,301 " fill="none" id="#10-responed: Your last BMI on 30.12.2018 was 25, please give me your weight and hight to update it" style="stroke: #A80036; stroke-width: 1.0;"/><polygon fill="#A80036" points="448.2593,301,439.2593,297,443.2593,301,439.2593,305,448.2593,301" style="stroke: #A80036; stroke-width: 1.0;"/><text fill="#000000" font-family="sans-serif" font-size="11" lengthAdjust="spacingAndGlyphs" textLength="22" x="415.75" y="295.6348">true</text><!--link #10 to responed: Plase give me your height, weight and birthday--><path d="M393,313.236 C393,327.0173 393,349.7005 393,366.6617 " fill="none" id="#10-responed: Plase give me your height, weight and birthday" style="stroke: #A80036; stroke-width: 1.0;"/><polygon fill="#A80036" points="393,371.7256,397,362.7256,393,366.7256,389,362.7256,393,371.7256" style="stroke: #A80036; stroke-width: 1.0;"/><text fill="#000000" font-family="sans-serif" font-size="11" lengthAdjust="spacingAndGlyphs" textLength="25" x="394" y="349.6348">false</text><!--link responed: Plase give me your height, weight and birthday to #17--><path d="M393,406.3034 C393,417.1588 393,431.0963 393,441.9108 " fill="none" id="responed: Plase give me your height, weight and birthday-#17" style="stroke: #A80036; stroke-width: 1.0;"/><polygon fill="#A80036" points="393,446.9417,397,437.9417,393,441.9417,389,437.9417,393,446.9417" style="stroke: #A80036; stroke-width: 1.0;"/><text fill="#000000" font-family="sans-serif" font-size="11" lengthAdjust="spacingAndGlyphs" textLength="372" x="0.6563" y="443.6536">User: My hight is 177 cm, I weigh 80kg and my birthday is 19.12.1987</text><!--link #17 to Fullfilment: update_bmi--><path d="M393,471.1931 C393,480.976 393,494.9695 393,506.7381 " fill="none" id="#17-Fullfilment: update_bmi" style="stroke: #A80036; stroke-width: 1.0;"/><polygon fill="#A80036" points="393,511.9656,397,502.9656,393,506.9656,389,502.9656,393,511.9656" style="stroke: #A80036; stroke-width: 1.0;"/><!--
@startuml
(*) - -> "Agent: Hi I am your personal trainer"

if "User: What is my bmi?" then
  - -> "Fullfilment: manage_bmi"
  if "profile exists" then
    -> [true] "responed: Your last BMI on 30.12.2018 was 25, please give me your weight and hight to update it"
  else 
    - -> [false] "responed: Plase give me your height, weight and birthday"
    if "User: My hight is 177 cm, I weigh 80kg and my birthday is 19.12.1987"
    - -> "Fullfilment: update_bmi"
endif

@enduml

PlantUML version 1.2018.03(Thu Apr 05 18:59:15 CEST 2018)
(GPL source distribution)
Java Runtime: Java(TM) SE Runtime Environment
JVM: Java HotSpot(TM) 64-Bit Server VM
Java Version: 10.0.1+10
Operating System: Mac OS X
OS Version: 10.13.3
Default Encoding: UTF-8
Language: en
Country: DE
--></g></svg>